<svg xmlns="http://www.w3.org/2000/svg" viewBox="95 95 165 155" width="165" height="155" transform="scale(0.7)">
  <path d="M 151 154.121094 C 147.261719 159.949219 145.488281 166.300781 145.675781 173.175781 C 145.863281 179.921875 147.871094 186.050781 151.703125 191.558594 L 116 216.40625 C 107.21875 203.789062 102.617188 189.777344 102.191406 174.371094 C 101.757812 158.5625 105.824219 143.980469 114.390625 130.628906 Z M 161.183594 200.65625 C 167.015625 204.386719 173.367188 206.15625 180.242188 205.960938 C 186.988281 205.769531 193.117188 203.757812 198.621094 199.917969 L 223.5 235.601562 C 210.890625 244.394531 196.882812 249.007812 181.476562 249.445312 C 165.664062 249.890625 151.082031 245.839844 137.726562 237.289062 Z M 207.710938 190.429688 C 211.4375 184.597656 213.199219 178.242188 213 171.367188 C 212.800781 164.621094 210.78125 158.496094 206.941406 152.996094 L 242.601562 128.085938 C 251.40625 140.6875 256.03125 154.691406 256.480469 170.097656 C 256.941406 185.90625 252.902344 200.492188 244.363281 213.855469 Z M 197.542969 143.980469 C 191.71875 140.234375 185.367188 138.453125 178.492188 138.636719 C 171.746094 138.816406 165.617188 140.820312 160.105469 144.648438 L 135.289062 108.921875 C 147.914062 100.152344 161.929688 95.5625 177.332031 95.152344 C 193.144531 94.730469 207.722656 98.808594 221.066406 107.386719 Z M 197.542969 143.980469" fill="#000000" stroke="none" stroke-width="0"/>
</svg>
